<svg width="120" height="97" viewBox="0 0 120 97" fill="none" xmlns="http://www.w3.org/2000/svg">
	<path opacity="0.2" d="M44.2529 31.4775V97H26.1475V54.0654C23.2178 56.292 20.376 58.0938 17.6221 59.4707C14.8975 60.8477 11.4697 62.166 7.33887 63.4258V48.748C13.4326 46.7852 18.1641 44.4268 21.5332 41.6729C24.9023 38.9189 27.5391 35.5205 29.4434 31.4775H44.2529Z" fill="#60773D" />
	<g clip-path="url(#clip0_448_440)">
		<path d="M51.9806 79.0001H55.9808V82.9998C55.9808 85.2092 57.7716 87 59.9805 87H107.981C110.19 87 111.981 85.2092 111.981 82.9998V19.0001C111.981 16.7906 110.19 14.9999 107.981 14.9999H103.981V11.0002C103.981 8.79077 102.19 7 99.9805 7H62.6477C62.6221 7 62.5983 7.01343 62.5726 7.01465C62.4506 7.02136 62.3297 7.04517 62.2144 7.08667C62.1747 7.1001 62.1356 7.11536 62.0978 7.13306C61.9495 7.19714 61.814 7.28748 61.698 7.39978L48.3649 20.7335C48.2532 20.8464 48.1628 20.9789 48.0981 21.1241C48.0792 21.165 48.0688 21.2065 48.0542 21.2493C48.0157 21.3597 47.9926 21.4751 47.9858 21.5923C47.9858 21.6216 47.9688 21.6466 47.9688 21.6759V74.9999C47.9688 76.0631 48.3917 77.0824 49.1443 77.8325C49.8975 78.5833 50.918 79.0032 51.9806 79.0001ZM107.981 17.6665C108.717 17.6665 109.314 18.2634 109.314 19.0001V82.9998C109.314 83.7365 108.717 84.3334 107.981 84.3334H59.9805C59.2444 84.3334 58.6475 83.7365 58.6475 82.9998V79.0001H99.9805C102.19 79.0001 103.981 77.2094 103.981 74.9999V17.6665H107.981ZM101.314 11.0002V74.9999C101.314 75.7366 100.717 76.3335 99.9805 76.3335H51.9806C51.2445 76.3335 50.6476 75.7366 50.6476 74.9999V22.9998H59.9805C62.1899 22.9998 63.9807 21.209 63.9807 19.0001V9.66663H99.9805C100.717 9.66663 101.314 10.2635 101.314 11.0002ZM61.3141 11.552V19.0001C61.3141 19.7362 60.7172 20.3331 59.9805 20.3331H52.533L61.3141 11.552Z" fill="#60773D" />
		<path fill-rule="evenodd" clip-rule="evenodd" d="M88.7055 33.1518C88.9582 33.4765 89.3464 33.6663 89.7578 33.6663C90.1685 33.6663 90.5567 33.4765 90.8094 33.1518L97.0319 25.1519C97.4647 24.5703 97.353 23.7493 96.7811 23.3044C96.2092 22.8588 95.3858 22.9528 94.9281 23.515L89.7578 30.1617L89.0321 29.2279C88.5798 28.6468 87.7418 28.543 87.1607 28.9953C86.5797 29.4482 86.4759 30.2856 86.9282 30.8666L88.7055 33.1518Z" fill="#60773D" />
		<path fill-rule="evenodd" clip-rule="evenodd" d="M58.6475 28.3337H57.3138C56.5778 28.3337 55.9808 28.9307 55.9808 29.6667C55.9808 30.4034 56.5778 31.0004 57.3138 31.0004H58.6475C59.3835 31.0004 59.9805 30.4034 59.9805 29.6667C59.9805 28.9307 59.3835 28.3337 58.6475 28.3337Z" fill="#60773D" />
		<path fill-rule="evenodd" clip-rule="evenodd" d="M63.9807 28.3337C63.2446 28.3337 62.6477 28.9307 62.6477 29.6667C62.6477 30.4034 63.2446 31.0004 63.9807 31.0004H79.9805C80.7172 31.0004 81.3141 30.4034 81.3141 29.6667C81.3141 28.9307 80.7172 28.3337 79.9805 28.3337H63.9807Z" fill="#60773D" />
		<path fill-rule="evenodd" clip-rule="evenodd" d="M88.7064 45.1519C88.9591 45.4766 89.3473 45.6664 89.7586 45.6664C90.1694 45.6664 90.5576 45.4766 90.8103 45.1519L97.0328 37.152C97.338 36.7772 97.4167 36.2664 97.2379 35.8171C97.0597 35.3685 96.6519 35.0511 96.1722 34.9883C95.6931 34.9254 95.2176 35.1268 94.9289 35.5144L89.7586 42.1611L89.0329 41.2279C88.7406 40.8519 88.2694 40.6609 87.7976 40.7268C87.3258 40.7921 86.9248 41.1046 86.7453 41.5459C86.5665 41.9872 86.6361 42.4907 86.9291 42.8667L88.7064 45.1519Z" fill="#60773D" />
		<path fill-rule="evenodd" clip-rule="evenodd" d="M58.6475 40.3333H57.3138C56.5778 40.3333 55.9808 40.9302 55.9808 41.6669C55.9808 42.403 56.5778 42.9999 57.3138 42.9999H58.6475C59.3835 42.9999 59.9805 42.403 59.9805 41.6669C59.9805 40.9302 59.3835 40.3333 58.6475 40.3333Z" fill="#60773D" />
		<path fill-rule="evenodd" clip-rule="evenodd" d="M79.9805 40.3333H63.9807C63.2446 40.3333 62.6477 40.9302 62.6477 41.6669C62.6477 42.403 63.2446 42.9999 63.9807 42.9999H79.9805C80.7172 42.9999 81.3141 42.403 81.3141 41.6669C81.3141 40.9302 80.7172 40.3333 79.9805 40.3333Z" fill="#60773D" />
		<path fill-rule="evenodd" clip-rule="evenodd" d="M88.7055 57.152C88.9582 57.4767 89.3464 57.6659 89.7578 57.6659C90.1685 57.6659 90.5567 57.4767 90.8094 57.152L97.0319 49.1521C97.3371 48.7773 97.4158 48.2665 97.237 47.8173C97.0588 47.368 96.6511 47.0513 96.1713 46.9884C95.6922 46.9255 95.2167 47.127 94.928 47.5145L89.7578 54.1613L89.0321 53.228C88.5798 52.647 87.7418 52.5426 87.1607 52.9955C86.5797 53.4478 86.4759 54.2858 86.9282 54.8668L88.7055 57.152Z" fill="#60773D" />
		<path fill-rule="evenodd" clip-rule="evenodd" d="M58.6475 52.3333H57.3138C56.5778 52.3333 55.9808 52.9302 55.9808 53.6669C55.9808 54.403 56.5778 54.9999 57.3138 54.9999H58.6475C59.3835 54.9999 59.9805 54.403 59.9805 53.6669C59.9805 52.9302 59.3835 52.3333 58.6475 52.3333Z" fill="#60773D" />
		<path fill-rule="evenodd" clip-rule="evenodd" d="M79.9805 52.3333H63.9807C63.2446 52.3333 62.6477 52.9302 62.6477 53.6669C62.6477 54.403 63.2446 54.9999 63.9807 54.9999H79.9805C80.7172 54.9999 81.3141 54.403 81.3141 53.6669C81.3141 52.9302 80.7172 52.3333 79.9805 52.3333Z" fill="#60773D" />
		<path fill-rule="evenodd" clip-rule="evenodd" d="M88.7055 69.1522C88.9582 69.4763 89.3464 69.6661 89.7578 69.6661C90.1685 69.6661 90.5567 69.4763 90.8094 69.1522L97.0319 61.1523C97.3371 60.7776 97.4158 60.2667 97.237 59.8175C97.0588 59.3683 96.6511 59.0509 96.1713 58.988C95.6922 58.9251 95.2167 59.1272 94.928 59.5147L89.7578 66.1615L89.0321 65.2283C88.5798 64.6472 87.7418 64.5428 87.1607 64.9957C86.5797 65.448 86.4759 66.286 86.9282 66.8671L88.7055 69.1522Z" fill="#60773D" />
		<path fill-rule="evenodd" clip-rule="evenodd" d="M58.6475 64.3335H57.3138C56.5778 64.3335 55.9808 64.9304 55.9808 65.6665C55.9808 66.4032 56.5778 67.0001 57.3138 67.0001H58.6475C59.3835 67.0001 59.9805 66.4032 59.9805 65.6665C59.9805 64.9304 59.3835 64.3335 58.6475 64.3335V64.3335Z" fill="#60773D" />
		<path fill-rule="evenodd" clip-rule="evenodd" d="M79.9805 64.3335H63.9807C63.2446 64.3335 62.6477 64.9304 62.6477 65.6665C62.6477 66.4032 63.2446 67.0001 63.9807 67.0001H79.9805C80.7172 67.0001 81.3141 66.4032 81.3141 65.6665C81.3141 64.9304 80.7172 64.3335 79.9805 64.3335V64.3335Z" fill="#60773D" />
	</g>
	<defs>
		<clipPath id="clip0_448_440">
			<rect width="80" height="80" fill="white" transform="translate(40 7)" />
		</clipPath>
	</defs>
</svg>
