<svg width="120" height="97" viewBox="0 0 120 97" fill="none" xmlns="http://www.w3.org/2000/svg">
	<path opacity="0.2" d="M56.0742 97H2.37305C2.98828 91.6973 4.84863 86.7168 7.9541 82.0586C11.0889 77.3711 16.9482 71.8486 25.5322 65.4912C30.7764 61.5947 34.1309 58.6357 35.5957 56.6143C37.0605 54.5928 37.793 52.6738 37.793 50.8574C37.793 48.8945 37.0605 47.2246 35.5957 45.8477C34.1602 44.4414 32.3438 43.7383 30.1465 43.7383C27.8613 43.7383 25.9863 44.4561 24.5215 45.8916C23.0859 47.3271 22.1191 49.8613 21.6211 53.4941L3.69141 52.0439C4.39453 47.0049 5.68359 43.0791 7.55859 40.2666C9.43359 37.4248 12.0703 35.2568 15.4688 33.7627C18.8965 32.2393 23.6279 31.4775 29.6631 31.4775C35.9619 31.4775 40.8545 32.1953 44.3408 33.6309C47.8564 35.0664 50.6104 37.2783 52.6025 40.2666C54.624 43.2256 55.6348 46.5508 55.6348 50.2422C55.6348 54.168 54.4775 57.918 52.1631 61.4922C49.8779 65.0664 45.7031 68.9922 39.6387 73.2695C36.0352 75.7598 33.6182 77.5029 32.3877 78.499C31.1865 79.4951 29.7656 80.7988 28.125 82.4102H56.0742V97Z" fill="#60773D" />
	<g clip-path="url(#clip0_448_441)">
		<path d="M116 73.4C108.042 69.18 101.938 66.8138 96.5044 65.9066L97.0667 65.1334C97.3334 64.8667 97.4667 64.4667 97.3334 64.0667L96.0839 59.0687C96.5367 58.4286 96.9639 57.7667 97.3641 57.0863C102.333 55.3952 104.845 52.5366 105.268 48.3278C107.45 48.2141 109.333 46.2661 109.333 44.0667V34.0667C109.333 31.8773 107.592 29.9372 105.31 29.8073C105.016 22.1048 101.62 7 80 7C58.3795 7 54.9836 22.1055 54.69 29.8078C52.5255 29.9356 50.6667 31.753 50.6667 34.0666V44.0666C50.6667 46.3333 52.6667 48.3333 55.0667 48.3333H57.0667C57.8017 48.3333 58.5081 48.122 59.1234 47.7605C59.8795 51.7738 61.5481 55.7211 63.9162 59.0686L62.6667 64.0666C62.6667 64.3333 62.6667 64.7333 62.9334 65.1333L63.4958 65.9064C58.062 66.8138 51.958 69.1798 44.0002 73.3998C41.4667 74.6 40 77.1333 40 79.9333V85.6666C40 86.4667 40.5333 87 41.3333 87H73.3333H73.8666H86.1333H86.6666H118.667C119.467 87 120 86.4667 120 85.6667V79.9334C120 77.2667 118.4 74.7333 116 73.4ZM80.0073 70.3502L83.2 77.6667H76.7555L80.0073 70.3502ZM75.7867 80.3333H84.2081L84.9886 84.3333H74.9866L75.7867 80.3333ZM94 61.6667L94.5333 64.0667L93.1712 65.9369C93.0844 66.008 93.0039 66.0941 92.9333 66.2L87.3872 73.8792L85.6275 76.2955L82.033 68.2078C86.417 67.6731 90.3211 65.4388 93.4513 62.2372C93.6363 62.0506 93.8194 61.8611 94 61.6667ZM99.2064 53.3725C99.9584 51.5427 100.525 49.6406 100.884 47.7234C101.391 48.0309 101.969 48.2364 102.593 48.3061C102.361 50.1908 101.524 51.9702 99.2064 53.3725ZM106.533 33.9333V43.9333C106.533 44.7333 105.867 45.5333 104.933 45.5333H102.933C102.133 45.5333 101.333 44.8666 101.333 43.9333V43V33.9333C101.333 33.1333 102 32.3333 102.933 32.3333H104.933C105.733 32.3333 106.533 33 106.533 33.9333ZM80 9.66672C88.2183 9.66672 102.05 12.3495 102.644 29.8217C102.086 29.8791 101.55 30.0489 101.066 30.3098C99.4439 20.1566 90.5917 12.3333 80 12.3333C69.4097 12.3333 60.5584 20.1544 58.9342 30.3055C58.4573 30.048 57.9248 29.8778 57.3555 29.8213C57.9505 12.3495 71.7819 9.66672 80 9.66672ZM58.5333 43.9333C58.5333 44.7333 57.8666 45.5333 56.9333 45.5333H54.9333C54.1333 45.5333 53.3333 44.8666 53.3333 43.9333V33.9333C53.3333 33.1333 54 32.3333 54.9333 32.3333H56.9333C57.7333 32.3333 58.5333 33 58.5333 33.9333V43.9333ZM61.3333 33.6667C61.3333 23.4 69.7333 15 80 15C90.2667 15 98.6667 23.4 98.6667 33.6667V43C98.6667 47.4112 97.5183 51.4498 95.6564 54.8573C92.4739 55.7805 87.8956 56.3333 81.3334 56.3333C80.5334 56.3333 80.0002 56.8666 80.0002 57.6666C80.0002 58.4666 80.5334 58.9998 81.3334 58.9998C86.1373 58.9998 90.155 58.7048 93.4452 58.0881C93.3634 58.1698 93.2817 58.2516 93.2 58.3333C92.5292 59.2277 91.8213 60.0431 91.0816 60.7784C87.942 63.7033 84.1975 65.475 80.5891 65.6505C80.4075 65.5725 80.2039 65.5333 80 65.5333C79.795 65.5333 79.6103 65.5734 79.4447 65.6522C77.2359 65.5509 74.9755 64.8508 72.8328 63.6533C70.662 62.4061 68.62 60.6081 66.8 58.3333C66.6667 58.2 66.5333 58.0666 66.4 57.9333L66.3222 57.9073C63.3278 53.9802 61.3333 48.8137 61.3333 43V33.6667ZM77.9669 68.2078L74.3723 76.2955L72.6127 73.8792L67.0666 66.2C67.0241 66.1575 66.9772 66.1155 66.9284 66.0741L65.4666 64.0667L65.9998 61.6667C66.1803 61.8611 66.3634 62.0505 66.5481 62.2369C69.6784 65.4384 73.5828 67.673 77.9669 68.2078ZM42.6667 79.9333C42.6667 78.2 43.6 76.6 45.2 75.8C53.6989 71.285 59.8169 69.0189 65.2669 68.342L73.2234 79.2823L72.2133 84.3333H42.6667V79.9333ZM117.333 84.3333H87.7867L86.7766 79.2823L94.8194 68.2234C100.25 69.043 106.478 71.3073 114.8 75.6666C116.4 76.5998 117.333 78.1998 117.333 79.9333V84.3333H117.333Z" fill="#60773D" />
	</g>
	<defs>
		<clipPath id="clip0_448_441">
			<rect width="80" height="80" fill="white" transform="translate(40 7)" />
		</clipPath>
	</defs>
</svg>
