                        <svg width="121" height="99" viewBox="0 0 121 99" fill="none" xmlns="http://www.w3.org/2000/svg">
                            <path opacity="0.2" d="M21.0498 51.209L4.13086 48.1768C5.53711 42.7861 8.23242 38.6553 12.2168 35.7842C16.2305 32.9131 21.8994 31.4775 29.2236 31.4775C37.6318 31.4775 43.7109 33.0449 47.4609 36.1797C51.2109 39.3145 53.0859 43.2549 53.0859 48.001C53.0859 50.7842 52.3242 53.3037 50.8008 55.5596C49.2773 57.8154 46.9775 59.793 43.9014 61.4922C46.3916 62.1074 48.2959 62.8252 49.6143 63.6455C51.7529 64.9639 53.4082 66.707 54.5801 68.875C55.7812 71.0137 56.3818 73.5771 56.3818 76.5654C56.3818 80.3154 55.4004 83.9189 53.4375 87.376C51.4746 90.8037 48.6475 93.4551 44.9561 95.3301C41.2646 97.1758 36.416 98.0986 30.4102 98.0986C24.5508 98.0986 19.9219 97.4102 16.5234 96.0332C13.1543 94.6562 10.3711 92.6494 8.17383 90.0127C6.00586 87.3467 4.33594 84.0068 3.16406 79.9932L21.0498 77.6201C21.7529 81.2236 22.8369 83.7285 24.3018 85.1348C25.7959 86.5117 27.6855 87.2002 29.9707 87.2002C32.373 87.2002 34.3652 86.3213 35.9473 84.5635C37.5586 82.8057 38.3643 80.4619 38.3643 77.5322C38.3643 74.5439 37.5879 72.2295 36.0352 70.5889C34.5117 68.9482 32.4316 68.1279 29.7949 68.1279C28.3887 68.1279 26.4551 68.4795 23.9941 69.1826L24.917 56.3945C25.9131 56.541 26.6895 56.6143 27.2461 56.6143C29.5898 56.6143 31.5381 55.8672 33.0908 54.373C34.6729 52.8789 35.4639 51.1064 35.4639 49.0557C35.4639 47.0928 34.8779 45.5254 33.7061 44.3535C32.5342 43.1816 30.9229 42.5957 28.8721 42.5957C26.7627 42.5957 25.0488 43.2402 23.7305 44.5293C22.4121 45.7891 21.5186 48.0156 21.0498 51.209Z" fill="#60773D" />
                            <path d="M58.8642 29.0529C54.7835 29.0529 51.4758 25.7447 51.4758 21.6646C51.4758 17.584 54.7835 14.2767 58.8642 14.2767C62.9443 14.2767 66.252 17.584 66.252 21.6646C66.2481 25.7428 62.9424 29.0486 58.8642 29.0529ZM58.8642 16.7393C56.1436 16.7393 53.9384 18.944 53.9384 21.6646C53.9384 24.3847 56.1436 26.5903 58.8642 26.5903C61.5842 26.5903 63.7894 24.3847 63.7894 21.6646C63.7894 18.944 61.5842 16.7393 58.8642 16.7393Z" fill="#60773D" />
                            <path d="M88.4167 63.5309V70.9192H74.8721V54.0236L67.4838 51.5605V38.9038H78.5658C81.9645 38.8995 84.7187 36.1452 84.7231 32.747V30.2844H50.2445C46.8459 30.2878 44.0921 33.042 44.0878 36.4412V49.9858C44.0878 52.0259 45.7419 53.68 47.7819 53.68H50.2445V75.8444H44.0878V84.4643H46.5509V78.307H63.7896V84.4643H66.2523V73.3818H88.4167V84.4643H90.8798V65.9935H115.507V84.4643H117.97V63.5309H88.4167ZM50.2445 37.6723V51.2174H47.7819C47.1019 51.2174 46.5509 50.6658 46.5509 49.9858V36.4412C46.5509 34.4002 48.2045 32.747 50.2445 32.747H82.26C82.26 34.7871 80.6059 36.4412 78.5658 36.4412H65.0212V53.3363L72.409 55.799V70.9192H68.7153V57.7519L56.4013 53.1342V75.8444H52.7076V37.6723H50.2445ZM63.7896 70.9192V75.8444H58.8644V56.6883L66.2523 59.4585V70.9192H63.7896Z" fill="#60773D" />
                            <path d="M98.2682 59.8368H108.119V29.0529H115.249L103.194 9.46411L91.1388 29.0529H98.2682V59.8368ZM95.5472 26.5903L103.194 14.1627L110.841 26.5903H105.657V57.3741H100.731V26.5903H95.5472Z" fill="#60773D" />
                        </svg>
