<svg width="16" height="20" viewBox="0 0 16 20" fill="none" xmlns="http://www.w3.org/2000/svg">
	<path d="M8.00003 0C3.92615 0 0.611938 3.31421 0.611938 7.38809C0.611938 8.72925 1.21342 10.1717 1.23862 10.2325C1.43289 10.6936 1.8162 11.4098 2.0926 11.8296L7.15822 19.505C7.36552 19.8196 7.67234 20 8.00003 20C8.32771 20 8.63453 19.8196 8.84184 19.5054L13.9079 11.8296C14.1847 11.4098 14.5676 10.6936 14.7619 10.2325C14.7871 10.1721 15.3881 8.72968 15.3881 7.38809C15.3881 3.31421 12.0739 0 8.00003 0ZM13.9605 9.89526C13.7871 10.3086 13.4303 10.9748 13.1821 11.3512L8.11606 19.0269C8.01611 19.1786 7.98438 19.1786 7.88443 19.0269L2.81837 11.3512C2.57022 10.9748 2.21342 10.3081 2.04001 9.89483C2.03262 9.87701 1.48113 8.54933 1.48113 7.38809C1.48113 3.79357 4.40551 0.869187 8.00003 0.869187C11.5946 0.869187 14.5189 3.79357 14.5189 7.38809C14.5189 8.55106 13.9661 9.88223 13.9605 9.89526Z" fill="#303030" />
	<path d="M8.00009 3.47719C5.8432 3.47719 4.08875 5.23208 4.08875 7.38853C4.08875 9.54499 5.8432 11.2999 8.00009 11.2999C10.157 11.2999 11.9114 9.54499 11.9114 7.38853C11.9114 5.23208 10.157 3.47719 8.00009 3.47719ZM8.00009 10.4307C6.32299 10.4307 4.95793 9.06607 4.95793 7.38853C4.95793 5.711 6.32299 4.34638 8.00009 4.34638C9.67719 4.34638 11.0422 5.711 11.0422 7.38853C11.0422 9.06607 9.67719 10.4307 8.00009 10.4307Z" fill="#303030" />
</svg>
