<svg width="235" height="56" viewBox="0 0 235 56" fill="none" xmlns="http://www.w3.org/2000/svg">
<g clip-path="url(#clip0_467_189)">
<path d="M19.7653 0H57.6264V55.936H2.30249V50.928C19.0927 50.928 35.883 50.928 52.6732 50.928V5.008H17.6052V15.28H7.25569V39.472C16.1572 39.48 25.0587 39.504 33.9602 39.472H34.0868L34.3242 39.456C34.4825 39.432 34.6407 39.416 34.799 39.384L35.0205 39.336C35.1787 39.288 35.3291 39.24 35.4873 39.184L35.5981 39.144L35.8197 39.048C35.97 38.976 36.1045 38.904 36.239 38.824C36.3498 38.76 36.4527 38.696 36.5555 38.624L36.7692 38.472C36.9432 38.336 37.0936 38.2 37.2518 38.048L37.4575 37.848L37.6553 37.624L37.8452 37.392L37.9323 37.28C38.0114 37.16 38.0984 37.048 38.1776 36.92L38.32 36.688L38.3833 36.568L38.502 36.32L38.6207 36.064L38.6681 35.936L38.7552 35.704C38.8185 35.496 38.866 35.304 38.9134 35.096L38.9609 34.832L38.9846 34.688L39.0005 34.544L39.0321 34.264L39.04 34.112V33.968V33.616V33.464L39.0321 33.32L39.0163 33.176L39.0005 33.04L38.9846 32.888L38.9609 32.744C38.9372 32.6 38.9134 32.464 38.8818 32.32L38.8027 32.04L38.7235 31.776C38.6681 31.64 38.6207 31.512 38.5653 31.376L38.4466 31.128L38.3912 31.016L38.32 30.888L38.2488 30.768C38.1459 30.6 38.0431 30.44 37.9244 30.28L37.8373 30.168L37.6633 29.96C37.4971 29.768 37.3388 29.608 37.1569 29.432C36.9907 29.28 36.8245 29.144 36.6505 29.008C36.4131 28.84 36.1915 28.704 35.9383 28.576L35.7089 28.472C35.4715 28.376 35.2658 28.296 35.0205 28.232L34.799 28.176C34.6407 28.152 34.4904 28.128 34.3242 28.104L34.0868 28.088H33.9602H33.8178H22.4872L22.4793 22.376H33.1057C33.2956 22.376 33.4934 22.376 33.6991 22.392C33.8969 22.4 34.1027 22.408 34.3005 22.432C34.5062 22.448 34.704 22.472 34.8939 22.496C35.0917 22.528 35.2816 22.56 35.4715 22.592L35.7643 22.648L36.0491 22.712L36.3181 22.784L36.6109 22.864L36.8799 22.952L37.149 23.04L37.418 23.144L37.687 23.248L37.956 23.368L38.2171 23.488L38.4703 23.608L38.7235 23.744L38.9688 23.88L39.222 24.032L39.4594 24.184L39.7047 24.352L39.95 24.52L40.1873 24.696L40.4089 24.872L40.6463 25.064L40.8678 25.264L41.0894 25.464L41.3109 25.672L41.5245 25.88L41.9676 26.336V26.36C42.1575 26.576 42.3316 26.784 42.5136 27.008L42.6639 27.208L42.8143 27.408L42.9488 27.608L43.0991 27.832L43.2415 28.064L43.384 28.304L43.5185 28.544L43.6372 28.776L43.7638 29.024L43.8745 29.264L43.9853 29.52L44.0882 29.776L44.1831 30.024L44.2702 30.28L44.3493 30.528L44.4205 30.784L44.4838 31.048L44.5471 31.32L44.6025 31.592L44.65 31.856L44.6895 32.128L44.7291 32.392L44.7528 32.68L44.7766 32.96L44.7924 33.24L44.8082 33.528V33.792V34.056L44.7924 34.344L44.7766 34.616L44.7528 34.904L44.7291 35.184L44.6895 35.464L44.65 35.728L44.6025 35.992L44.5471 36.256L44.4917 36.52L44.4205 36.784L44.3414 37.048L44.2622 37.312L44.1752 37.56L44.0803 37.816L43.9774 38.064L43.8745 38.32L43.7559 38.56L43.6372 38.808L43.5185 39.04L43.384 39.272L43.2415 39.512L43.0991 39.744L42.9409 39.976L42.7826 40.2L42.6165 40.424L42.4503 40.648L42.2762 40.856L42.0942 41.072L41.9043 41.28L41.7144 41.488L41.5087 41.704L41.2872 41.92L41.0735 42.12L40.852 42.328L40.6304 42.512L40.4089 42.696L40.1715 42.88L39.9341 43.056C39.7363 43.192 39.5385 43.328 39.3407 43.464L39.3328 43.456L39.2141 43.536L38.9609 43.688C38.8897 43.728 38.8106 43.768 38.7156 43.824L38.4624 43.952L38.2092 44.08L37.9481 44.2L37.6791 44.312L37.4101 44.424L37.149 44.52L36.8799 44.608L36.5951 44.696L36.3181 44.776L36.0412 44.848L35.7643 44.912L35.4715 44.968L35.1867 45.016L34.8939 45.064L34.6011 45.096L34.3005 45.128L33.9919 45.152L33.6912 45.168L33.3905 45.184H33.1057C22.8353 45.184 12.5649 45.184 2.30249 45.184V17.672L4.6604 15.28H4.65249L7.22404 12.68L7.25569 12.648L17.6052 2.184L19.7653 0Z" fill="white"/>
<path fill-rule="evenodd" clip-rule="evenodd" d="M22.5822 9.53589H47.8862V15.2799H22.329V9.53589H22.5822Z" fill="#60773D"/>
<path d="M67.0185 14.352H76.0546V11.04H63.3867V27.736H71.0302C74.8519 27.736 77.186 25.848 77.186 22.44C77.186 19.312 75.113 17.264 71.3862 17.264H67.0185V14.352ZM71.0064 20.32C72.7313 20.32 73.5542 21.008 73.5542 22.296C73.5542 23.752 72.7313 24.416 71.0302 24.416H67.0185V20.32H71.0064ZM94.4035 11.04H91.0328L83.7692 21.984V11.04H80.1849V27.736H83.603L90.8192 16.784V27.736H94.4035V11.04ZM104.239 10.752C101.097 10.752 99.1194 11.872 97.5844 13.496L99.4992 15.832C100.607 14.688 101.928 14 103.954 14C105.536 14 106.62 14.688 106.62 15.856C106.62 17.12 105.584 17.792 103.669 17.792H101.81V20.84H103.717C105.608 20.84 107 21.416 107 22.8C107 24.088 105.75 24.8 104.215 24.8C102.071 24.8 100.298 24.016 98.9532 22.68L97.0226 25.232C98.7871 27.04 100.892 28.016 104.357 28.016C108.203 28.016 110.632 25.896 110.632 23.008C110.632 20.888 109.311 19.648 107.538 19.08C109.002 18.432 110.205 17.312 110.205 15.24C110.205 12.64 107.776 10.752 104.239 10.752ZM113.789 27.736H117.421V21.032H124.123V27.736H127.755V11.04H124.123V17.648H117.421V11.04H113.789V27.736ZM131.711 27.736H144.284V24.464H135.319V20.96H143.105V17.696H135.319V14.304H144.165V11.04H131.711V27.736ZM155.25 28.016C158.431 28.016 160.322 27.016 162.015 25.184L159.705 22.68C158.407 23.872 157.252 24.632 155.369 24.632C152.536 24.632 150.582 22.248 150.582 19.384C150.582 16.48 152.584 14.144 155.369 14.144C157.252 14.144 158.336 14.832 159.61 16L161.786 13.472C160.251 11.944 158.502 10.752 155.393 10.752C150.321 10.752 146.784 14.64 146.784 19.384C146.784 24.224 150.392 28.016 155.25 28.016ZM164.12 22.08H171.384V18.6H164.12V22.08Z" fill="white"/>
<path d="M174.541 27.7359H178.101V16.9039L182.707 23.9679H182.794L187.446 16.8319V27.7359H191.054V11.0399H187.138L182.794 18.0959L178.458 11.0399H174.541V27.7359ZM205.843 15.1919C208.501 15.1919 210.274 16.7839 210.274 19.2399C210.274 21.7439 208.501 23.3199 205.843 23.3199V15.1919ZM205.843 28.3999V26.5919C210.93 26.5919 214.024 23.3919 214.024 19.1999C214.024 14.9999 210.883 11.9199 205.843 11.9199V10.3999H202.211V11.9199C197.139 11.9199 194.021 14.9999 194.021 19.1759C194.021 23.3919 197.115 26.5919 202.211 26.5919V28.3999H205.843ZM202.211 23.3199C199.544 23.3199 197.748 21.7439 197.748 19.2399C197.748 16.7839 199.544 15.1919 202.211 15.1919V23.3199ZM229.232 31.2159H232.254L232.729 24.4159H230.767V11.0399H227.135V24.4159H220.623V11.0399H216.991V27.7359H229.232V31.2159Z" fill="#60773D"/>
<path d="M63.6051 41.88V34.04H66.9062C67.8145 34.04 68.4903 34.2715 68.9334 34.7344C69.2657 35.0853 69.4318 35.5109 69.4318 36.0112C69.4318 36.8624 69.022 37.4672 68.2022 37.8256C69.31 38.1616 69.8639 38.8 69.8639 39.7408C69.8639 40.4053 69.6091 40.928 69.0995 41.3088C68.59 41.6896 67.9068 41.88 67.0502 41.88H63.6051ZM64.4691 41.0848H67.0723C67.6631 41.0848 68.1284 40.9616 68.4681 40.7152C68.8078 40.4613 68.9777 40.1104 68.9777 39.6624C68.9777 39.2293 68.8004 38.8971 68.4459 38.6656C68.0989 38.4341 67.5893 38.3184 66.9173 38.3184H64.4691V41.0848ZM64.4691 37.5344H66.7622C67.3013 37.5344 67.7333 37.4112 68.0582 37.1648C68.3832 36.9184 68.5456 36.5675 68.5456 36.112C68.5456 35.7163 68.3943 35.4064 68.0915 35.1824C67.7961 34.9509 67.3751 34.8352 66.8286 34.8352H64.4691V37.5344Z" fill="white"/>
<path d="M74.0365 42.0144C73.2094 42.0144 72.5115 41.7195 71.9429 41.1296C71.3816 40.5323 71.101 39.8192 71.101 38.9904C71.101 38.1616 71.3816 37.4523 71.9429 36.8624C72.5115 36.2651 73.2094 35.9664 74.0365 35.9664C74.9227 35.9664 75.687 36.3099 76.3295 36.9968L75.7867 37.5792C75.255 37.0117 74.6679 36.728 74.0254 36.728C73.4494 36.728 72.962 36.9483 72.5632 37.3888C72.1718 37.8219 71.9761 38.3557 71.9761 38.9904C71.9761 39.6176 72.1755 40.1515 72.5743 40.592C72.9805 41.0251 73.4826 41.2416 74.0808 41.2416C74.6938 41.2416 75.2698 40.9504 75.8089 40.368L76.3738 40.8944C75.7092 41.6411 74.9301 42.0144 74.0365 42.0144Z" fill="white"/>
<path d="M80.2874 42.0144C79.4824 42.0144 78.803 41.7344 78.2491 41.1744C77.7026 40.6069 77.4294 39.8789 77.4294 38.9904C77.4294 38.1467 77.6916 37.4336 78.2159 36.8512C78.7402 36.2613 79.3938 35.9664 80.1766 35.9664C80.9963 35.9664 81.6462 36.2576 82.1262 36.84C82.6063 37.4224 82.8463 38.1541 82.8463 39.0352C82.8463 39.1472 82.8426 39.248 82.8352 39.3376H78.2934C78.3525 39.9275 78.5704 40.3979 78.947 40.7488C79.331 41.0923 79.7852 41.264 80.3095 41.264C80.9963 41.264 81.5982 40.9915 82.1152 40.4464L82.6469 40.928C82.0044 41.6523 81.2179 42.0144 80.2874 42.0144ZM78.2934 38.6432H81.9822C81.9305 38.0832 81.7459 37.6203 81.4284 37.2544C81.1182 36.8811 80.6936 36.6944 80.1545 36.6944C79.667 36.6944 79.2498 36.8773 78.9027 37.2432C78.5556 37.6091 78.3525 38.0757 78.2934 38.6432ZM78.6368 35.216V34.152H79.6338V35.216H78.6368ZM80.5865 35.216V34.152H81.5834V35.216H80.5865Z" fill="white"/>
<path d="M86.8187 43.3248V41.1184H87.439C87.9486 40.1701 88.2033 38.8299 88.2033 37.0976V36.0896H92.2798V41.1184H93.1439L93.011 43.3248H92.302V41.88H87.6716L87.5165 43.3248H86.8187ZM88.3473 41.1184H91.4269V36.8512H89.0231V37.6576C89.0231 39.1136 88.7978 40.2672 88.3473 41.1184Z" fill="white"/>
<path d="M94.0366 41.9696C93.815 41.9696 93.5861 41.9397 93.3498 41.88L93.4495 41.1408C93.6193 41.1931 93.7559 41.2192 93.8593 41.2192C94.0218 41.2192 94.1547 41.2005 94.2581 41.1632C94.3615 41.1184 94.4723 41.0101 94.5904 40.8384C94.716 40.6592 94.812 40.4091 94.8785 40.088C94.9449 39.7669 95.0003 39.3115 95.0446 38.7216C95.0963 38.1317 95.1222 37.4149 95.1222 36.5712V36.0896H99.1765V41.88H98.3235V36.8512H95.9308V36.9856C95.9308 37.8667 95.8976 38.6171 95.8311 39.2368C95.7646 39.8565 95.6797 40.3419 95.5763 40.6928C95.4803 41.0437 95.3437 41.3163 95.1665 41.5104C94.9892 41.7045 94.8157 41.8277 94.6458 41.88C94.4834 41.9397 94.2803 41.9696 94.0366 41.9696Z" fill="white"/>
<path d="M100.576 41.88L102.326 39.64C101.876 39.5355 101.506 39.3301 101.218 39.024C100.938 38.7179 100.797 38.3408 100.797 37.8928C100.797 37.3552 100.989 36.9221 101.373 36.5936C101.757 36.2576 102.286 36.0896 102.958 36.0896H105.649V41.88H104.796V39.7744H103.212C103.146 39.864 102.917 40.1701 102.526 40.6928C102.134 41.2155 101.835 41.6112 101.628 41.88H100.576ZM103.024 39.0464H104.796V36.8512H103.002C102.581 36.8512 102.249 36.9483 102.005 37.1424C101.769 37.3291 101.65 37.5904 101.65 37.9264C101.65 38.2699 101.776 38.5424 102.027 38.744C102.286 38.9456 102.618 39.0464 103.024 39.0464Z" fill="white"/>
<path d="M113.567 42.0144C112.689 42.0144 111.983 41.7232 111.452 41.1408C110.927 40.5509 110.665 39.7557 110.665 38.7552C110.665 38.3893 110.672 38.0795 110.687 37.8256C110.702 37.5643 110.732 37.2768 110.776 36.9632C110.82 36.6496 110.89 36.3808 110.986 36.1568C111.082 35.9328 111.204 35.7125 111.352 35.496C111.507 35.2795 111.706 35.0965 111.95 34.9472C112.194 34.7979 112.478 34.6859 112.803 34.6112L115.993 33.8496L116.16 34.5776L113.058 35.3504C112.482 35.4997 112.068 35.7387 111.817 36.0672C111.573 36.3883 111.429 36.8363 111.385 37.4112C111.873 36.5749 112.663 36.1568 113.756 36.1568C114.509 36.1568 115.155 36.4405 115.694 37.008C116.233 37.568 116.503 38.2437 116.503 39.0352C116.503 39.8565 116.222 40.5584 115.661 41.1408C115.1 41.7232 114.402 42.0144 113.567 42.0144ZM113.59 41.2416C114.173 41.2416 114.657 41.0325 115.041 40.6144C115.425 40.1888 115.617 39.6699 115.617 39.0576C115.617 38.4528 115.417 37.9376 115.019 37.512C114.627 37.0864 114.143 36.8736 113.567 36.8736C112.984 36.8736 112.5 37.0864 112.116 37.512C111.732 37.9301 111.54 38.4453 111.54 39.0576C111.54 39.6624 111.736 40.1776 112.127 40.6032C112.526 41.0288 113.014 41.2416 113.59 41.2416Z" fill="white"/>
<path d="M118.048 41.88V36.0896H118.901V40.6704L122.302 36.0896H123.132V41.88H122.279V37.2992L118.868 41.88H118.048Z" fill="white"/>
<path d="M126.853 42.0144C125.974 42.0144 125.184 41.7269 124.482 41.152L124.914 40.5136C125.498 41.0139 126.136 41.264 126.831 41.264C127.222 41.264 127.554 41.1744 127.828 40.9952C128.108 40.8085 128.249 40.5547 128.249 40.2336C128.249 39.9349 128.123 39.7035 127.872 39.5392C127.621 39.3675 127.266 39.2816 126.808 39.2816H126.044V38.576H126.82C127.196 38.576 127.503 38.4864 127.739 38.3072C127.975 38.1205 128.093 37.8779 128.093 37.5792C128.093 37.3179 127.975 37.1088 127.739 36.952C127.51 36.7952 127.215 36.7168 126.853 36.7168C126.173 36.7168 125.594 36.9109 125.114 37.2992L124.693 36.6944C125.313 36.2091 126.052 35.9664 126.908 35.9664C127.543 35.9664 128.045 36.112 128.415 36.4032C128.791 36.6869 128.98 37.0565 128.98 37.512C128.98 38.1467 128.673 38.5909 128.06 38.8448C128.769 39.0987 129.124 39.5728 129.124 40.2672C129.124 40.7525 128.917 41.1669 128.503 41.5104C128.09 41.8464 127.54 42.0144 126.853 42.0144Z" fill="white"/>
<path d="M130.705 41.88V36.0896H131.558V38.5872H134.859V36.0896H135.712V41.88H134.859V39.3488H131.558V41.88H130.705Z" fill="white"/>
<path d="M140.121 42.0144C139.316 42.0144 138.636 41.7344 138.082 41.1744C137.536 40.6069 137.263 39.8789 137.263 38.9904C137.263 38.1467 137.525 37.4336 138.049 36.8512C138.574 36.2613 139.227 35.9664 140.01 35.9664C140.83 35.9664 141.48 36.2576 141.96 36.84C142.44 37.4224 142.68 38.1541 142.68 39.0352C142.68 39.1472 142.676 39.248 142.669 39.3376H138.127C138.186 39.9275 138.404 40.3979 138.78 40.7488C139.164 41.0923 139.619 41.264 140.143 41.264C140.83 41.264 141.432 40.9915 141.948 40.4464L142.48 40.928C141.838 41.6523 141.051 42.0144 140.121 42.0144ZM138.127 38.6432H141.816C141.764 38.0832 141.579 37.6203 141.262 37.2544C140.952 36.8811 140.527 36.6944 139.988 36.6944C139.5 36.6944 139.083 36.8773 138.736 37.2432C138.389 37.6091 138.186 38.0757 138.127 38.6432Z" fill="white"/>
<path d="M146.754 42.0144C145.927 42.0144 145.229 41.7195 144.66 41.1296C144.099 40.5323 143.818 39.8192 143.818 38.9904C143.818 38.1616 144.099 37.4523 144.66 36.8624C145.229 36.2651 145.927 35.9664 146.754 35.9664C147.64 35.9664 148.404 36.3099 149.047 36.9968L148.504 37.5792C147.972 37.0117 147.385 36.728 146.743 36.728C146.167 36.728 145.679 36.9483 145.281 37.3888C144.889 37.8219 144.693 38.3557 144.693 38.9904C144.693 39.6176 144.893 40.1515 145.292 40.592C145.698 41.0251 146.2 41.2416 146.798 41.2416C147.411 41.2416 147.987 40.9504 148.526 40.368L149.091 40.8944C148.427 41.6411 147.647 42.0144 146.754 42.0144Z" fill="white"/>
<path d="M152.207 42.0032C151.624 42.0032 151.122 41.8427 150.701 41.5216C150.28 41.2005 150.069 40.7525 150.069 40.1776C150.069 39.5728 150.291 39.1061 150.734 38.7776C151.177 38.4491 151.771 38.2848 152.517 38.2848C153.108 38.2848 153.692 38.3669 154.268 38.5312V38.352C154.268 37.8443 154.12 37.456 153.824 37.1872C153.529 36.9184 153.112 36.784 152.573 36.784C152.011 36.784 151.432 36.9221 150.834 37.1984L150.579 36.4928C151.288 36.1643 151.982 36 152.661 36C153.474 36 154.09 36.2128 154.511 36.6384C154.91 37.0416 155.109 37.6091 155.109 38.3408V41.88H154.268V41.0176C153.758 41.6747 153.071 42.0032 152.207 42.0032ZM152.373 41.3088C152.905 41.3088 153.356 41.1632 153.725 40.872C154.094 40.5808 154.279 40.2075 154.279 39.752V39.2144C153.717 39.0501 153.16 38.968 152.606 38.968C152.082 38.968 151.672 39.0763 151.376 39.2928C151.081 39.5019 150.933 39.7893 150.933 40.1552C150.933 40.5061 151.07 40.7861 151.343 40.9952C151.624 41.2043 151.967 41.3088 152.373 41.3088Z" fill="white"/>
<path d="M160.237 41.88V36.0896H163.007C163.575 36.0896 164.029 36.2203 164.369 36.4816C164.709 36.7429 164.879 37.0939 164.879 37.5344C164.879 38.1541 164.561 38.5984 163.926 38.8672C164.768 39.0987 165.189 39.5765 165.189 40.3008C165.189 40.7861 165.001 41.1707 164.624 41.4544C164.247 41.7381 163.741 41.88 163.106 41.88H160.237ZM161.09 41.1408H162.996C163.402 41.1408 163.723 41.0549 163.959 40.8832C164.196 40.7115 164.314 40.4725 164.314 40.1664C164.314 39.8827 164.188 39.6624 163.937 39.5056C163.693 39.3488 163.343 39.2704 162.885 39.2704H161.09V41.1408ZM161.09 38.576H162.852C163.206 38.576 163.487 38.4976 163.693 38.3408C163.908 38.1765 164.015 37.9451 164.015 37.6464C164.015 37.4 163.915 37.2021 163.716 37.0528C163.516 36.9035 163.236 36.8288 162.874 36.8288H161.09V38.576Z" fill="white"/>
<path d="M174.801 41.1296C174.225 41.7195 173.513 42.0144 172.663 42.0144C171.814 42.0144 171.105 41.7195 170.536 41.1296C169.975 40.5397 169.695 39.8267 169.695 38.9904C169.695 38.1616 169.979 37.4523 170.548 36.8624C171.124 36.2651 171.836 35.9664 172.685 35.9664C173.535 35.9664 174.244 36.2613 174.812 36.8512C175.381 37.4411 175.665 38.1541 175.665 38.9904C175.665 39.8192 175.377 40.5323 174.801 41.1296ZM172.685 41.2416C173.298 41.2416 173.801 41.0251 174.192 40.592C174.591 40.1589 174.79 39.6251 174.79 38.9904C174.79 38.3632 174.583 37.8293 174.17 37.3888C173.764 36.9483 173.261 36.728 172.663 36.728C172.05 36.728 171.548 36.9483 171.157 37.3888C170.765 37.8219 170.57 38.3557 170.57 38.9904C170.57 39.6176 170.773 40.1515 171.179 40.592C171.585 41.0251 172.087 41.2416 172.685 41.2416Z" fill="white"/>
<path d="M176.369 43.3248V41.1184H176.989C177.498 40.1701 177.753 38.8299 177.753 37.0976V36.0896H181.83V41.1184H182.694L182.561 43.3248H181.852V41.88H177.221L177.066 43.3248H176.369ZM177.897 41.1184H180.977V36.8512H178.573V37.6576C178.573 39.1136 178.348 40.2672 177.897 41.1184Z" fill="white"/>
<path d="M183.863 41.88V36.0896H184.716V38.5872H188.017V36.0896H188.87V41.88H188.017V39.3488H184.716V41.88H183.863Z" fill="white"/>
<path d="M195.528 41.1296C194.952 41.7195 194.24 42.0144 193.39 42.0144C192.541 42.0144 191.832 41.7195 191.263 41.1296C190.702 40.5397 190.421 39.8267 190.421 38.9904C190.421 38.1616 190.706 37.4523 191.274 36.8624C191.85 36.2651 192.563 35.9664 193.412 35.9664C194.262 35.9664 194.971 36.2613 195.539 36.8512C196.108 37.4411 196.392 38.1541 196.392 38.9904C196.392 39.8192 196.104 40.5323 195.528 41.1296ZM193.412 41.2416C194.025 41.2416 194.528 41.0251 194.919 40.592C195.318 40.1589 195.517 39.6251 195.517 38.9904C195.517 38.3632 195.31 37.8293 194.897 37.3888C194.491 36.9483 193.988 36.728 193.39 36.728C192.777 36.728 192.275 36.9483 191.884 37.3888C191.492 37.8219 191.297 38.3557 191.297 38.9904C191.297 39.6176 191.5 40.1515 191.906 40.592C192.312 41.0251 192.814 41.2416 193.412 41.2416Z" fill="white"/>
<path d="M197.937 41.88V36.0896H198.746L200.884 39.136L203.022 36.0896H203.842V41.88H202.978V37.4672L200.862 40.4016L198.768 37.4672V41.88H197.937Z" fill="white"/>
<path d="M213.821 41.1296C213.245 41.7195 212.532 42.0144 211.683 42.0144C210.834 42.0144 210.125 41.7195 209.556 41.1296C208.995 40.5397 208.714 39.8267 208.714 38.9904C208.714 38.1616 208.999 37.4523 209.567 36.8624C210.143 36.2651 210.856 35.9664 211.705 35.9664C212.555 35.9664 213.264 36.2613 213.832 36.8512C214.401 37.4411 214.685 38.1541 214.685 38.9904C214.685 39.8192 214.397 40.5323 213.821 41.1296ZM211.705 41.2416C212.318 41.2416 212.82 41.0251 213.212 40.592C213.611 40.1589 213.81 39.6251 213.81 38.9904C213.81 38.3632 213.603 37.8293 213.19 37.3888C212.784 36.9483 212.281 36.728 211.683 36.728C211.07 36.728 210.568 36.9483 210.177 37.3888C209.785 37.8219 209.59 38.3557 209.59 38.9904C209.59 39.6176 209.793 40.1515 210.199 40.592C210.605 41.0251 211.107 41.2416 211.705 41.2416Z" fill="white"/>
<path d="M216.23 41.88V36.0896H217.083V39.4272L220.218 36.0896H221.271L218.878 38.5984L221.337 41.88H220.329L218.291 39.2256L217.083 40.48V41.88H216.23Z" fill="white"/>
<path d="M222.515 41.88V36.0896H223.368V38.5872H226.669V36.0896H227.522V41.88H226.669V39.3488H223.368V41.88H222.515Z" fill="white"/>
<path d="M231.932 42.0144C231.127 42.0144 230.447 41.7344 229.893 41.1744C229.347 40.6069 229.074 39.8789 229.074 38.9904C229.074 38.1467 229.336 37.4336 229.86 36.8512C230.384 36.2613 231.038 35.9664 231.821 35.9664C232.64 35.9664 233.29 36.2576 233.77 36.84C234.25 37.4224 234.49 38.1541 234.49 39.0352C234.49 39.1472 234.487 39.248 234.479 39.3376H229.938C229.997 39.9275 230.215 40.3979 230.591 40.7488C230.975 41.0923 231.429 41.264 231.954 41.264C232.64 41.264 233.242 40.9915 233.759 40.4464L234.291 40.928C233.649 41.6523 232.862 42.0144 231.932 42.0144ZM229.938 38.6432H233.626C233.575 38.0832 233.39 37.6203 233.072 37.2544C232.762 36.8811 232.338 36.6944 231.799 36.6944C231.311 36.6944 230.894 36.8773 230.547 37.2432C230.2 37.6091 229.997 38.0757 229.938 38.6432Z" fill="white"/>
</g>
<defs>
<clipPath id="clip0_467_189">
<rect width="235" height="56" fill="white"/>
</clipPath>
</defs>
</svg>
