<svg width="50" height="213" viewBox="0 0 50 213" fill="none" xmlns="http://www.w3.org/2000/svg">
<path d="M17.5415 212.904L0.00645447 212.904L0.0064567 187.331L25.6265 187.331L25.6265 189.626C17.846 189.626 10.076 189.626 2.29546 189.626L2.29545 210.61L18.539 210.61L18.539 205.916L23.3375 205.916L23.3375 194.853L23.3375 192.245L25.6265 192.245L25.6265 204.827L24.5345 205.916L23.348 207.1L23.3375 207.121L18.539 211.898L17.5415 212.904Z" fill="#E6E6E6"/>
<path fill-rule="evenodd" clip-rule="evenodd" d="M19.967 166.369L0.00650024 166.369L0.00650045 164.064L20.1665 164.064L20.1665 166.369L19.967 166.369Z" fill="#E6E6E6"/>
<path d="M31.475 164.064L49.01 164.064L49.01 189.626L23.3795 189.626L23.3795 187.342C31.16 187.342 38.9405 187.342 46.7105 187.342L46.7105 166.348L30.467 166.348L30.467 171.051L25.679 171.051L25.679 182.104L25.679 184.712L23.3795 184.712L23.3795 172.141L24.4715 171.051L25.658 169.857L25.679 169.847L30.467 165.059L31.475 164.064Z" fill="#E6E6E6"/>
<path fill-rule="evenodd" clip-rule="evenodd" d="M48.8105 212.904L28.8395 212.904L28.8395 210.599L49.01 210.599L49.01 212.904L48.8105 212.904Z" fill="#E6E6E6"/>
<path d="M17.5415 158.564L0.00645447 158.564L0.0064567 132.991L25.6265 132.991L25.6265 135.286C17.846 135.286 10.076 135.286 2.29546 135.286L2.29545 156.269L18.539 156.269L18.539 151.576L23.3375 151.576L23.3375 140.524L23.3375 137.905L25.6265 137.905L25.6265 150.487L24.5345 151.576L23.348 152.76L23.3375 152.781L18.539 157.558L17.5415 158.564Z" fill="#E6E6E6"/>
<path fill-rule="evenodd" clip-rule="evenodd" d="M19.967 112.029L0.00650787 112.029L0.00650808 109.724L20.1665 109.724L20.1665 112.029L19.967 112.029Z" fill="#E6E6E6"/>
<path d="M31.475 109.724L49.01 109.724L49.01 135.286L23.3795 135.286L23.3795 133.002C31.16 133.002 38.9405 133.002 46.7105 133.002L46.7105 112.008L30.467 112.008L30.467 116.711L25.679 116.711L25.679 127.764L25.679 130.372L23.3795 130.372L23.3795 117.801L24.4715 116.711L25.658 115.517L25.679 115.507L30.467 110.729L31.475 109.724Z" fill="#E6E6E6"/>
<path fill-rule="evenodd" clip-rule="evenodd" d="M48.8105 158.564L28.8395 158.564L28.8395 156.259L49.01 156.259L49.01 158.564L48.8105 158.564Z" fill="#E6E6E6"/>
<path d="M17.5415 103.941L0.00645828 103.941L0.00646052 78.379L25.6265 78.379L25.6265 80.6628C17.846 80.6628 10.076 80.6628 2.29546 80.6628L2.29546 101.657L18.539 101.657L18.539 96.9533L23.3375 96.9533L23.3375 85.9009L23.3375 83.2924L25.6265 83.2924L25.6265 95.8638L24.5345 96.9533L23.348 98.1476L23.3375 98.1581L18.539 102.946L17.5415 103.941Z" fill="#E6E6E6"/>
<path fill-rule="evenodd" clip-rule="evenodd" d="M19.967 57.4058L0.00649643 57.4058L0.00649663 55.101L20.1665 55.101L20.1665 57.4058L19.967 57.4058Z" fill="#E6E6E6"/>
<path d="M31.475 55.1009L49.01 55.1009L49.01 80.6733L23.3795 80.6733L23.3795 78.379C31.16 78.3791 38.9405 78.3791 46.7105 78.3791L46.7105 57.3952L30.467 57.3952L30.467 62.0886L25.679 62.0886L25.679 73.1514L25.679 75.76L23.3795 75.76L23.3795 63.1781L24.4715 62.0886L25.658 60.9047L25.679 60.8838L30.467 56.1066L31.475 55.1009Z" fill="#E6E6E6"/>
<path fill-rule="evenodd" clip-rule="evenodd" d="M48.8105 103.941L28.8395 103.941L28.8395 101.636L49.01 101.636L49.01 103.941L48.8105 103.941Z" fill="#E6E6E6"/>
<path d="M17.5415 49.6011L0.0064621 49.6011L0.00646433 24.0392L25.6265 24.0392L25.6265 26.323C17.846 26.323 10.076 26.323 2.29547 26.323L2.29546 47.3173L18.539 47.3173L18.539 42.6135L23.3375 42.6135L23.3375 31.5611L23.3375 28.9525L25.6265 28.9525L25.6265 41.5239L24.5345 42.6135L23.348 43.8077L23.3375 43.8182L18.539 48.6058L17.5415 49.6011Z" fill="#E6E6E6"/>
<path fill-rule="evenodd" clip-rule="evenodd" d="M19.967 3.07617L0.00649643 3.07617L0.00649663 0.760939L20.1665 0.760941L20.1665 3.07617L19.967 3.07617Z" fill="#E6E6E6"/>
<path d="M31.475 0.760878L49.01 0.76088L49.01 26.3333L23.3795 26.3332L23.3795 24.039C31.16 24.039 38.9405 24.039 46.7105 24.039L46.7105 3.05516L30.467 3.05516L30.467 7.7485L25.679 7.74849L25.679 18.8113L25.679 21.4199L23.3795 21.4199L23.3795 8.83802L24.4715 7.74849L25.658 6.56469L25.679 6.54373L30.467 1.76659L31.475 0.760878Z" fill="#E6E6E6"/>
<path fill-rule="evenodd" clip-rule="evenodd" d="M48.8105 49.6011L28.8395 49.6011L28.8395 47.2963L49.01 47.2963L49.01 49.6011L48.8105 49.6011Z" fill="#E6E6E6"/>
</svg>
